<svg xmlns="http://www.w3.org/2000/svg" width="900" height="380" viewBox="0 0 900 380">
<rect width="100%" height="100%" fill="#ffffff"/>
<text x="20" y="28" font-family="Arial" font-size="18" fill="#111111">Fact coverage by configuration</text>
<text x="20" y="66" font-family="Arial" font-size="12" fill="#111111">agent_no_assertions</text>
<rect x="260" y="46" width="560" height="28" fill="#2f6f73"/>
<text x="828" y="66" font-family="Arial" font-size="12" fill="#111111">1.000</text>
<text x="20" y="104" font-family="Arial" font-size="12" fill="#111111">agent_with_assertions</text>
<rect x="260" y="84" width="560" height="28" fill="#2f6f73"/>
<text x="828" y="104" font-family="Arial" font-size="12" fill="#111111">1.000</text>
<text x="20" y="142" font-family="Arial" font-size="12" fill="#111111">agent_without_dates_grounded</text>
<rect x="260" y="122" width="560" height="28" fill="#2f6f73"/>
<text x="828" y="142" font-family="Arial" font-size="12" fill="#111111">1.000</text>
<text x="20" y="180" font-family="Arial" font-size="12" fill="#111111">agent_without_metrics_grounded</text>
<rect x="260" y="160" width="560" height="28" fill="#2f6f73"/>
<text x="828" y="180" font-family="Arial" font-size="12" fill="#111111">1.000</text>
<text x="20" y="218" font-family="Arial" font-size="12" fill="#111111">agent_without_project_exists</text>
<rect x="260" y="198" width="560" height="28" fill="#2f6f73"/>
<text x="828" y="218" font-family="Arial" font-size="12" fill="#111111">1.000</text>
<text x="20" y="256" font-family="Arial" font-size="12" fill="#111111">agent_without_scope_bounded</text>
<rect x="260" y="236" width="560" height="28" fill="#2f6f73"/>
<text x="828" y="256" font-family="Arial" font-size="12" fill="#111111">1.000</text>
<text x="20" y="294" font-family="Arial" font-size="12" fill="#111111">agent_without_technology_grounded</text>
<rect x="260" y="274" width="560" height="28" fill="#2f6f73"/>
<text x="828" y="294" font-family="Arial" font-size="12" fill="#111111">1.000</text>
<text x="20" y="332" font-family="Arial" font-size="12" fill="#111111">pipeline</text>
<rect x="260" y="312" width="560" height="28" fill="#2f6f73"/>
<text x="828" y="332" font-family="Arial" font-size="12" fill="#111111">1.000</text>
</svg>
